<!--?xml version="1.0" encoding="utf-8"?-->
<!-- Generator: Adobe Illustrator 18.1.1, SVG Export Plug-In . SVG Version: 6.00 Build 0)  -->

<svg version="1.1" id="_x32_" xmlns="http://www.w3.org/2000/svg" xmlns:xlink="http://www.w3.org/1999/xlink" x="0px" y="0px" viewBox="0 0 512 512" xml:space="preserve">
<style type="text/css">
	.st0{fill:#4B4B4B;}
</style>
<g>
	<path class="st0" d="M470.522,491.888l-40.189-367.362L256,0L81.667,124.527L39.282,512h433.437L470.522,491.888z M79.736,475.725
		l36.222-331.113L256,44.582l140.042,100.03l36.221,331.113H79.736z" style="fill: rgb(75, 75, 75);"></path>
	<path class="st0" d="M333.19,361.446c-4.826-2.683-20.466,9.113-23.894,9.157c-1.222,0.009-21.237,0.726-46.663,1.621
		c-0.398-9.006-1.24-28.419-1.815-45.175c24.496-0.505,46.654-0.948,50.693-0.656c9.591,0.682,13.709-10.282,7.536-17.818
		c-6.164-7.537-21.919-20.555-26.719-19.873c-4.8,0.691-12.336,7.545-12.336,7.545s-8.29,0.62-19.713,1.338
		c0.301-16.986,1.922-39.666,1.922-41.526c0-1.293-0.266-6.075-2.578-10.318c33.326-3.463,70.442-7.138,73.816-8.183
		c9.592-2.966,2.276-20.334-21.927-32.892c-11.69-6.067-23.531,0-30.828,5.482c0,0-54.811,5.482-74.002,7.536
		c-19.262,2.064-34.937,1.373-45.44-7.076c-14.613,42.031,25.576,43.855,52.976,40.189c3.269-0.434,7.422-0.938,12.133-1.479
		c0.399,9.273,0.425,28.854,0.31,50.047c-15.604,0.619-29.606,0.779-33.679-0.381c-11.451-3.25-17.81-1.373-15.756,5.482
		c0,0,7.537,21.927,10.274,23.291c1.045,0.522,17.924,0.355,38.931-0.026c-0.203,20.271-0.469,38.222-0.575,45.777
		c-37.497,1.276-73.816,2.436-75.472,2.116c-10.113-1.912-19.182,0.195-8.768,13.108c0,0,14.701,21.972,19.412,23.096
		c8.245,1.984,58.858-6.757,81.468-6.987c22.61-0.23,99.402,5.172,104.883,5.119c5.482-0.071,22.566-4.348,22.495-12.576
		C369.784,389.166,338.008,364.138,333.19,361.446z" style="fill: rgb(75, 75, 75);"></path>
</g>
</svg>
